# xmcd
#
# Track frame offsets:
#	150
#	11015
#	22807
#	39127
#	54585
#	68657
#	85685
#	103090
#	122027
#	137600
#	153640
#
# Disc length: 2273 seconds
#
# Revision: 1
# Processed by: cddbd v1.4PL0 Copyright (c) Steve Scherf et al.
# Submitted via: CDmax 1.9
#
DISCID=8008df0b
DTITLE=Neal Coty - Legacy
DYEAR=2001
DGENRE=Country
TTITLE0=Right Down Through The Middle Of Us
TTITLE1=You're All That
TTITLE2=You Got Lucky
TTITLE3=Breathin'
TTITLE4=Legacy
TTITLE5=Sad Eyes
TTITLE6=This Town Ain't Big Enough
TTITLE7=Black Heart Of Texas
TTITLE8=Can't Change My Love
TTITLE9=South Texas Night
TTITLE10=The Worst Way
EXTD=
EXTT0=
EXTT1=
EXTT2=
EXTT3=
EXTT4=
EXTT5=
EXTT6=
EXTT7=
EXTT8=
EXTT9=
EXTT10=
PLAYORDER=
